<svg width="2114" height="1397" viewBox="0 0 2114 1397" fill="none" xmlns="http://www.w3.org/2000/svg">
<path d="M0 30C0 13.4315 13.4315 0 30 0H2114V1397H30C13.4314 1397 0 1383.57 0 1367V30Z" fill="#EDF0F4"/>
<path d="M0 27C0 12.0883 12.0883 0 27 0H2114V77H0V27Z" fill="#3B445B"/>
<circle cx="46.5" cy="39.5" r="11.5" fill="#F46A63"/>
<ellipse cx="79" cy="39.5" rx="11" ry="11.5" fill="#EEB847"/>
<circle cx="111.5" cy="39.5" r="11.5" fill="#75CD67"/>
<rect y="77" width="2114" height="77" fill="white"/>
<rect x="207" y="89" width="1735" height="53" rx="26.5" fill="#EDF0F4"/>
<path d="M53.6914 114.982V118.018H34.3945L43.2266 126.689L41 128.857L28.3086 116.5L41 104.143L43.2266 106.311L34.3945 114.982H53.6914Z" fill="#3B445B"/>
<path d="M161.98 108.02L165.691 104.309V115.441H154.559L159.68 110.32C157.799 108.44 155.573 107.5 153 107.5C150.378 107.5 148.139 108.428 146.283 110.283C144.428 112.139 143.5 114.378 143.5 117C143.5 119.622 144.428 121.861 146.283 123.717C148.139 125.572 150.378 126.5 153 126.5C154.831 126.5 156.624 125.882 158.381 124.645C160.137 123.408 161.337 121.923 161.98 120.191H165.246C164.553 122.962 163.069 125.238 160.793 127.02C158.517 128.801 155.919 129.691 153 129.691C149.536 129.691 146.568 128.454 144.094 125.98C141.62 123.507 140.383 120.513 140.383 117C140.383 113.487 141.62 110.493 144.094 108.02C146.568 105.546 149.536 104.309 153 104.309C154.484 104.309 156.105 104.667 157.861 105.385C159.618 106.102 160.991 106.98 161.98 108.02Z" fill="#3B445B"/>
<path d="M97 102.641L110.359 116L97 129.359L94.6562 127.016L103.953 117.641H83.6406V114.359H103.953L94.6562 104.984L97 102.641Z" fill="#3B445B"/>
<line x1="2045" y1="102" x2="2045" y2="130" stroke="#D6D6D6" stroke-width="2"/>
<ellipse cx="2080" cy="106.076" rx="3" ry="3.0764" fill="#3C4043" fill-opacity="0.7"/>
<ellipse cx="2080" cy="106.076" rx="3" ry="3.0764" fill="#3C4043" fill-opacity="0.7"/>
<ellipse cx="2080" cy="106.076" rx="3" ry="3.0764" fill="#3C4043" fill-opacity="0.7"/>
<ellipse cx="2080" cy="106.076" rx="3" ry="3.0764" fill="#3C4043" fill-opacity="0.7"/>
<ellipse cx="2080" cy="106.076" rx="3" ry="3.0764" fill="#3B445B"/>
<ellipse cx="2080" cy="124.897" rx="3" ry="3.0764" fill="#3C4043" fill-opacity="0.7"/>
<ellipse cx="2080" cy="124.897" rx="3" ry="3.0764" fill="#3C4043" fill-opacity="0.7"/>
<ellipse cx="2080" cy="124.897" rx="3" ry="3.0764" fill="#3C4043" fill-opacity="0.7"/>
<ellipse cx="2080" cy="124.897" rx="3" ry="3.0764" fill="#3C4043" fill-opacity="0.7"/>
<ellipse cx="2080" cy="124.897" rx="3" ry="3.0764" fill="#3B445B"/>
<ellipse cx="2080" cy="115.487" rx="3" ry="3.0764" fill="#3C4043" fill-opacity="0.7"/>
<ellipse cx="2080" cy="115.487" rx="3" ry="3.0764" fill="#3C4043" fill-opacity="0.7"/>
<ellipse cx="2080" cy="115.487" rx="3" ry="3.0764" fill="#3C4043" fill-opacity="0.7"/>
<ellipse cx="2080" cy="115.487" rx="3" ry="3.0764" fill="#3C4043" fill-opacity="0.7"/>
<ellipse cx="2080" cy="115.487" rx="3" ry="3.0764" fill="#3B445B"/>
<rect x="1980" y="93" width="25.3749" height="44.864" rx="5" fill="#40485C"/>
<rect x="1980.88" y="96.5892" width="23.6249" height="37.6857" rx="5" fill="white"/>
<rect x="1994" y="101.075" width="20.9999" height="36.7885" rx="5" fill="#40485C"/>
<rect x="1994.88" y="103.767" width="19.2499" height="31.4048" rx="5" fill="url(#paint0_linear)"/>
<defs>
<linearGradient id="paint0_linear" x1="2010.62" y1="103.767" x2="1997.84" y2="134.048" gradientUnits="userSpaceOnUse">
<stop stop-color="#7AB3F9"/>
<stop stop-color="#79B5FF"/>
<stop offset="1" stop-color="#549CF8"/>
</linearGradient>
</defs>
</svg>
