<?xml version="1.0"?>
<svg viewBox="0 0 100 93" width="100" height="93" xmlns="http://www.w3.org/2000/svg" xmlns:svg="http://www.w3.org/2000/svg">
 <g>
  <title>Layer 1</title>
  <rect mask="url(#maskicon)" viewBox="0 0 100 93" width="100" height="93" fill="#3968A2" id="svg_2"/>
 </g>
 <g>
  <title>Layer 2</title>
  <path d="m90.092003,15.535218c-4.933006,0 -8.758003,4.111003 -8.758003,9.091002c0,1.741999 0.494003,3.363001 1.232002,4.731001l-9.867004,10.587992l-3.454987,-19.179993c3.821999,-1.493 6.538986,-5.105002 6.538986,-9.465003c0,-5.478999 -4.565987,-9.963999 -10.116997,-9.963999c-5.427002,0 -9.993,4.485 -9.993,9.963999c0,2.739 1.357998,6.352002 4.195999,8.222003l-10.117001,18.804993l-9.993,-18.805992c2.470001,-1.745001 4.196003,-4.859004 4.196003,-8.222003c0,-5.478999 -4.566002,-9.964 -10.116001,-9.964c-5.551001,0 -9.993,4.485001 -9.993,9.964c0,4.111 2.345999,7.723002 6.538,9.465003l-3.698,19.055992l-9.746,-10.462992c1.479,-1.867001 1.726,-3.360001 1.726,-4.731001c0,-4.98 -3.948,-9.091002 -8.882,-9.091002s-8.758,4.111003 -8.758,9.091002c0,4.609999 3.331,8.343994 8.264,8.716995l11.228,35.994011c-8.021,6.351997 -8.021,13.946999 -8.021,23.662003l75.129992,0c0,-9.714005 0,-17.559013 -8.266998,-23.911003l11.473007,-35.744011c4.686996,-0.249001 8.140999,-4.106997 8.140999,-8.716995c0,-4.980999 -3.948997,-9.092002 -8.881996,-9.092002zm-80.309003,11.956002c-1.602,0 -2.961,-1.368 -2.961,-3.114c0,-1.618 1.358,-2.989 2.961,-2.989c1.726,0 3.084,1.371 3.084,2.989c0,1.746 -1.358999,3.114 -3.084,3.114zm55.883,-19.554001c2.097,0 3.578003,1.495998 3.578003,3.486999c0,1.994999 -1.482002,3.612 -3.578003,3.612c-1.852001,0 -3.453999,-1.618 -3.453999,-3.612c0,-1.991001 1.601997,-3.486999 3.453999,-3.486999zm-31.827991,0c1.976002,0 3.578003,1.495998 3.578003,3.486999c0,1.994999 -1.602001,3.612 -3.578003,3.612c-1.848999,0 -3.454998,-1.618 -3.454998,-3.612c0,-1.991001 1.605999,-3.486999 3.454998,-3.486999zm-12.213009,76.221007c0,-5.603996 4.936001,-7.848 10.734001,-9.216003c6.539009,-1.619995 15.296997,-1.495987 17.393997,-1.495987c3.207001,0 10.857002,-0.374001 16.530998,1.370987c6.906006,1.867004 12.213005,3.737015 12.213005,9.341003l-56.872002,0zm50.827003,-17.437996c-8.267014,-1.368004 -16.778992,-2.116005 -23.934002,-2.116005c-6.906002,0 -13.568001,0.374001 -20.601002,1.867004l-9.993,-26.152016l0.247,-0.374001l12.707001,13.078003l4.441,-26.778997l0.247002,0l14.185997,26.030996l14.186001,-26.030996l0.246998,0l4.442001,26.528997l12.830002,-12.828003l0.247002,0.249001l-9.251999,26.526016zm17.639999,-39.22901c-1.606003,0 -2.961006,-1.368 -2.961006,-3.114c0,-1.493 1.355003,-2.989 2.961006,-2.989c1.601997,0 3.084,1.496 3.084,2.989c0,1.746 -1.481003,3.114 -3.084,3.114z" fill="#ffffff" id="svg_1"/>
 </g>
</svg>